<svg xmlns="http://www.w3.org/2000/svg" viewBox="0 0 100 100">
    <!-- Tela de araña esquina superior izquierda -->
    <g fill="none" stroke="white" stroke-linecap="round">
        <!-- Hilos radiales desde la esquina -->
        <g stroke-opacity="0.7" stroke-width="0.6">
            <line x1="0" y1="0" x2="98" y2="10" />
            <line x1="0" y1="0" x2="90" y2="35" />
            <line x1="0" y1="0" x2="74" y2="60" />
            <line x1="0" y1="0" x2="52" y2="80" />
            <line x1="0" y1="0" x2="26" y2="93" />
            <line x1="0" y1="0" x2="6" y2="98" />
        </g>
        <!-- Anillos concéntricos (hilos espirales) -->
        <g stroke-opacity="0.45" stroke-width="0.5">
            <!-- Anillo interior -->
            <path d="M 25,2.5 Q 26,7 23,9 Q 21,13 19,15 Q 16,19 13,20 Q 9,23 7,24 Q 3,25 1.5,25" />
            <!-- Anillo medio -->
            <path d="M 50,5 Q 51,14 46,18 Q 43,26 38,30 Q 33,38 26,40 Q 18,46 13,47 Q 6,50 3,50" />
            <!-- Anillo exterior -->
            <path d="M 78,8 Q 78,22 72,28 Q 67,40 59,48 Q 50,58 42,62 Q 30,70 20,74 Q 10,78 5,78" />
        </g>
        <!-- Hilo suelto colgante -->
        <g stroke-opacity="0.3" stroke-width="0.4">
            <path d="M 40,3 Q 44,8 38,14" />
            <path d="M 3,42 Q 8,44 12,38" />
        </g>
    </g>
</svg>
